<svg xmlns="http://www.w3.org/2000/svg" viewBox="0 0 200 200" width="200" height="200">
  <circle cx="100" cy="100" r="98" fill="none" stroke="#2c3e50" stroke-width="2"/>
  <circle cx="100" cy="100" r="96" fill="none" stroke="#2c3e50" stroke-width="1"/>
  <path d="M100,4 A96,96 0 0,1 100,196 A48,48 0 0,1 100,100 A48,48 0 0,0 100,4" fill="#ffffff" stroke="#2c3e50" stroke-width="0.5"/>
  <path d="M100,4 A96,96 0 0,0 100,196 A48,48 0 0,0 100,100 A48,48 0 0,1 100,4" fill="#1a1a2e" stroke="#2c3e50" stroke-width="0.5"/>
  <circle cx="100" cy="52" r="8" fill="#1a1a2e"/>
  <circle cx="100" cy="148" r="8" fill="#ffffff"/>
  <path d="M100,88 C100,88 94,78 86,78 C76,78 72,86 72,94 C72,106 86,116 100,130 C114,116 128,106 128,94 C128,86 124,78 114,78 C106,78 100,88 100,88 Z" fill="#e74c3c" stroke="#c0392b" stroke-width="1.5" transform="translate(0,4)"/>
  <text x="100" y="178" text-anchor="middle" font-family="serif" font-size="16" fill="#2c3e50" letter-spacing="4">恒❤️</text>
</svg>

